<?xml version="1.0" encoding="utf-8" standalone="yes"?>
<!DOCTYPE svg PUBLIC "-//W3C//DTD SVG 1.1//EN" "http://www.w3.org/Graphics/SVG/1.1/DTD/svg11.dtd">
<svg width="654" height="640" viewBox="0 0 654 640" style="fill:none;stroke:none;fill-rule:evenodd;clip-rule:evenodd;stroke-linecap:round;stroke-linejoin:round;stroke-miterlimit:1.5;" version="1.1"
	xmlns="http://www.w3.org/2000/svg"
	xmlns:xlink="http://www.w3.org/1999/xlink">
	<style class="text-font-style fontImports" data-font-family="Roboto">@import url('https://fonts.googleapis.com/css2?family=Roboto:wght@400;700&amp;display=block');</style>
	<g id="items" style="isolation: isolate">
		<g id="blend" style="mix-blend-mode: normal">
			<g id="g-root-ro_qrjvblqyxouh-fill" data-item-order="-23400" transform="translate(230, 272)">
				<g id="ro_qrjvblqyxouh-fill" stroke="none" fill="#e0e0e0">
					<g>
						<path d="M 34 10L 142 10C 142 10 166 10 166 34L 166 136C 166 136 166 160 142 160L 34 160C 34 160 10 160 10 136L 10 34C 10 34 10 10 34 10"></path>
					</g>
				</g>
			</g>
			<g id="g-root-ro_mg3osxqz4op9-fill" data-item-order="-12960" transform="translate(42, 446)">
				<g id="ro_mg3osxqz4op9-fill" stroke="none" fill="rgb(245,130,32)">
					<g>
						<path d="M 22 10L 238 10C 238 10 250 10 250 22L 250 52C 250 52 250 64 238 64L 22 64C 22 64 10 64 10 52L 10 22C 10 22 10 10 22 10"></path>
					</g>
				</g>
			</g>
			<g id="g-root-ro_909uttqyz4lp-fill" data-item-order="-11016" transform="translate(416, 272)">
				<g id="ro_909uttqyz4lp-fill" stroke="none" fill="rgb(4,59,114)">
					<g>
						<path d="M 22 10L 202 10C 202 10 214 10 214 22L 214 52C 214 52 214 64 202 64L 22 64C 22 64 10 64 10 52L 10 22C 10 22 10 10 22 10"></path>
					</g>
				</g>
			</g>
			<g id="g-root-ro_959nipqz1vkd-fill" data-item-order="-10368" transform="translate(340, 122)">
				<g id="ro_959nipqz1vkd-fill" stroke="none" fill="rgb(0,169,206)">
					<g>
						<path d="M 22 10L 190 10C 190 10 202 10 202 22L 202 52C 202 52 202 64 190 64L 22 64C 22 64 10 64 10 52L 10 22C 10 22 10 10 22 10"></path>
					</g>
				</g>
			</g>
			<g id="g-root-ro_v301u9qz4qhb-fill" data-item-order="-9720" transform="translate(14, 272)">
				<g id="ro_v301u9qz4qhb-fill" stroke="none" fill="rgb(240,178,107)">
					<g>
						<path d="M 22 10L 178 10C 178 10 190 10 190 22L 190 52C 190 52 190 64 178 64L 22 64C 22 64 10 64 10 52L 10 22C 10 22 10 10 22 10"></path>
					</g>
				</g>
			</g>
			<g id="g-root-ro_qu1ro1qz632j-fill" data-item-order="-9072" transform="translate(102, 122)">
				<g id="ro_qu1ro1qz632j-fill" stroke="none" fill="rgb(174,99,78)">
					<g>
						<path d="M 22 10L 166 10C 166 10 178 10 178 22L 178 52C 178 52 178 64 166 64L 22 64C 22 64 10 64 10 52L 10 22C 10 22 10 10 22 10"></path>
					</g>
				</g>
			</g>
			<g id="g-root-ro_909uttqz0irl-fill" data-item-order="-7776" transform="translate(352, 446)">
				<g id="ro_909uttqz0irl-fill" stroke="none" fill="rgb(132,136,139)">
					<g>
						<path d="M 22 10L 142 10C 142 10 154 10 154 22L 154 52C 154 52 154 64 142 64L 22 64C 22 64 10 64 10 52L 10 22C 10 22 10 10 22 10"></path>
					</g>
				</g>
			</g>
			<g id="g-root-cu_hyerf5qz64nf-fill" data-item-order="0" transform="translate(334, 149)"></g>
			<g id="g-root-cu_93e89dqz632g-fill" data-item-order="0" transform="translate(216, 500)"></g>
			<g id="g-root-tx_n8n_v3mixdqz39xi-fill" data-item-order="0" transform="translate(174, 188)">
				<g id="tx_n8n_v3mixdqz39xi-fill" stroke="none" fill="#000000">
					<g>
						<text style="font: 15px Roboto, sans-serif; white-space: pre;" font-size="15px" font-family="Roboto, sans-serif">
							<tspan x="19" y="31" dominant-baseline="ideographic">n8n</tspan>
						</text>
					</g>
				</g>
			</g>
			<g id="g-root-cu_4nkq4xqz63uy-fill" data-item-order="0" transform="translate(216, 176)"></g>
			<g id="g-root-cu_4nkq4xqz63v1-fill" data-item-order="0" transform="translate(216, 176)"></g>
			<g id="g-root-cu_7r80hqz64nb-fill" data-item-order="0" transform="translate(382, 176)"></g>
			<g id="g-root-cu_7r80hqz64ne-fill" data-item-order="0" transform="translate(382, 176)"></g>
			<g id="g-root-tx__hs60k1qz3big-fill" data-item-order="0" transform="translate(406, 188)">
				<g id="tx__hs60k1qz3big-fill" stroke="none" fill="#000000">
					<g>
						<text style="font: 15px Roboto, sans-serif; white-space: pre;" font-size="15px" font-family="Roboto, sans-serif">
							<tspan x="12" y="31" dominant-baseline="ideographic">조회성 시스템 코드 제공</tspan>
						</text>
					</g>
				</g>
			</g>
			<g id="g-root-tx__m7ziohqz3aq7-fill" data-item-order="0" transform="translate(102, 224)">
				<g id="tx__m7ziohqz3aq7-fill" stroke="none" fill="#000000">
					<g>
						<text style="font: 15px Roboto, sans-serif; white-space: pre;" font-size="15px" font-family="Roboto, sans-serif">
							<tspan x="15.68" y="31" dominant-baseline="ideographic">자동화 시나리오</tspan>
						</text>
					</g>
				</g>
			</g>
			<g id="g-root-tx__dcciflqz3cap-fill" data-item-order="0" transform="translate(406, 224)">
				<g id="tx__dcciflqz3cap-fill" stroke="none" fill="#000000">
					<g>
						<text style="font: 15px Roboto, sans-serif; white-space: pre;" font-size="15px" font-family="Roboto, sans-serif">
							<tspan x="12" y="31" dominant-baseline="ideographic">MTR/Pharos/RMS 등 </tspan>
						</text>
					</g>
				</g>
			</g>
			<g id="g-root-cu_hyerf5qz64nc-fill" data-item-order="0" transform="translate(258, 149)"></g>
			<g id="g-root-cu_93e89dqz632j-fill" data-item-order="0" transform="translate(216, 500)"></g>
			<g id="g-root-cu_me89jlqz63us-fill" data-item-order="0" transform="translate(182, 299)"></g>
			<g id="g-root-cu_93e89dqz632l-fill" data-item-order="0" transform="translate(382, 500)"></g>
			<g id="g-root-cu_4nkq4xqz63uw-fill" data-item-order="0" transform="translate(382, 500)"></g>
			<g id="g-root-cu_dil9apqz64nj-fill" data-item-order="0" transform="translate(386, 299)"></g>
			<g id="g-root-tx__959nipqz1vke-fill" data-item-order="0" transform="translate(38, 338)">
				<g id="tx__959nipqz1vke-fill" stroke="none" fill="#000000">
					<g>
						<text style="font: 15px Roboto, sans-serif; white-space: pre;" font-size="15px" font-family="Roboto, sans-serif">
							<tspan x="17.48" y="31" dominant-baseline="ideographic">코드 카탈로그</tspan>
						</text>
					</g>
				</g>
			</g>
			<g id="g-root-cu_dil9apqz65fq-fill" data-item-order="0" transform="translate(140, 326)"></g>
			<g id="g-root-cu_dil9apqz65ft-fill" data-item-order="0" transform="translate(140, 326)"></g>
			<g id="g-root-cu_dil9apqz65fv-fill" data-item-order="0" transform="translate(458, 326)"></g>
			<g id="g-root-cu_dil9apqz65fy-fill" data-item-order="0" transform="translate(458, 326)"></g>
			<g id="g-root-tx_snowflak_9mn9tqz1x4w-fill" data-item-order="0" transform="translate(482, 338)">
				<g id="tx_snowflak_9mn9tqz1x4w-fill" stroke="none" fill="#000000">
					<g>
						<text style="font: 15px Roboto, sans-serif; white-space: pre;" font-size="15px" font-family="Roboto, sans-serif">
							<tspan x="12" y="31" dominant-baseline="ideographic">Snowflake</tspan>
						</text>
					</g>
				</g>
			</g>
			<g id="g-root-tx__4pg5e9qz1wcn-fill" data-item-order="0" transform="translate(50, 374)">
				<g id="tx__4pg5e9qz1wcn-fill" stroke="none" fill="#000000">
					<g>
						<text style="font: 15px Roboto, sans-serif; white-space: pre;" font-size="15px" font-family="Roboto, sans-serif">
							<tspan x="19.27" y="31" dominant-baseline="ideographic">검증된 코드</tspan>
						</text>
					</g>
				</g>
			</g>
			<g id="g-root-tx__1qf3p01qz1xqh-fill" data-item-order="0" transform="translate(482, 374)">
				<g id="tx__1qf3p01qz1xqh-fill" stroke="none" fill="#000000">
					<g>
						<text style="font: 15px Roboto, sans-serif; white-space: pre;" font-size="15px" font-family="Roboto, sans-serif">
							<tspan x="12" y="31" dominant-baseline="ideographic">데이터 사일로 해소</tspan>
						</text>
					</g>
				</g>
			</g>
			<g id="g-root-cu_hyerf5qz64n6-fill" data-item-order="0" transform="translate(258, 410)"></g>
			<g id="g-root-cu_hyerf5qz64n9-fill" data-item-order="0" transform="translate(334, 410)"></g>
			<g id="g-root-tx__18egk7lqz3bic-fill" data-item-order="0" transform="translate(406, 512)">
				<g id="tx__18egk7lqz3bic-fill" stroke="none" fill="#000000">
					<g>
						<text style="font: 15px Roboto, sans-serif; white-space: pre;" font-size="15px" font-family="Roboto, sans-serif">
							<tspan x="12" y="31" dominant-baseline="ideographic">클라우드 환경</tspan>
						</text>
					</g>
				</g>
			</g>
			<g id="g-root-tx_llmapi_18egk7lqz3bib-fill" data-item-order="0" transform="translate(150, 548)">
				<g id="tx_llmapi_18egk7lqz3bib-fill" stroke="none" fill="#000000">
					<g>
						<text style="font: 15px Roboto, sans-serif; white-space: pre;" font-size="15px" font-family="Roboto, sans-serif">
							<tspan x="11.7" y="31" dominant-baseline="ideographic">LLM API</tspan>
						</text>
					</g>
				</g>
			</g>
			<g id="g-root-tx_aiworksp_7r80hqz64ng-fill" data-item-order="0" transform="translate(0, 38)">
				<g id="tx_aiworksp_7r80hqz64ng-fill" stroke="none" fill="#000000">
					<g>
						<text x="327" text-anchor="middle" style="font: bold 25px Roboto, sans-serif; white-space: pre;" font-weight="bold" font-size="25px" font-family="Roboto, sans-serif" dominant-baseline="middle" alignment-baseline="middle">
							<tspan y="46" dominant-baseline="middle">AI WorkSpace EcoSystem </tspan>
						</text>
					</g>
				</g>
			</g>
			<g id="g-root-tx__zitjypqz3cb1-fill" data-item-order="0" transform="translate(406, 548)">
				<g id="tx__zitjypqz3cb1-fill" stroke="none" fill="#000000">
					<g>
						<text style="font: 15px Roboto, sans-serif; white-space: pre;" font-size="15px" font-family="Roboto, sans-serif">
							<tspan x="12" y="31" dominant-baseline="ideographic">로컬 환경</tspan>
						</text>
					</g>
				</g>
			</g>
			<g id="g-root-tx_aicodeas_1lpx2kxqz39xe-fill" data-item-order="0" transform="translate(78, 512)">
				<g id="tx_aicodeas_1lpx2kxqz39xe-fill" stroke="none" fill="#000000">
					<g>
						<text style="font: 15px Roboto, sans-serif; white-space: pre;" font-size="15px" font-family="Roboto, sans-serif">
							<tspan x="21.04" y="31" dominant-baseline="ideographic">AI Code Assistant</tspan>
						</text>
					</g>
				</g>
			</g>
			<g id="g-root-tx_it_mg3osxqz1x57-fill" data-item-order="1000000000" transform="translate(388, 137)">
				<g id="tx_it_mg3osxqz1x57-fill" stroke="none" fill="#ffffff">
					<g>
						<text style="font: 20px Roboto, sans-serif; white-space: pre;" font-size="20px" font-family="Roboto, sans-serif">
							<tspan x="12" y="34" dominant-baseline="ideographic">IT 코드 서비스</tspan>
						</text>
					</g>
				</g>
			</g>
			<g id="g-root-tx__18egk7lqz4owd-fill" data-item-order="1000000000" transform="translate(26, 287)">
				<g id="tx__18egk7lqz4owd-fill" stroke="none" fill="#ffffff">
					<g>
						<text style="font: 20px Roboto, sans-serif; white-space: pre;" font-size="20px" font-family="Roboto, sans-serif">
							<tspan x="12.64" y="34" dominant-baseline="ideographic">코드 가져오기</tspan>
						</text>
					</g>
				</g>
			</g>
			<g id="g-root-ic_1_v301u9qz4qha-fill" data-item-order="1000000000" transform="translate(152, 284)"></g>
			<g id="g-root-ic_layo_zn6vkhqyxo1s-fill" data-item-order="1000000000" transform="translate(284, 296)"></g>
			<g id="g-root-ic_code_i0a6ohqz1xxg-fill" data-item-order="1000000000" transform="translate(352, 134)"></g>
			<g id="g-root-ic_1_909uttqyz4lo-fill" data-item-order="1000000000" transform="translate(428, 284)"></g>
			<g id="g-root-tx__hvwv2pqyz3sz-fill" data-item-order="1000000000" transform="translate(464, 287)">
				<g id="tx__hvwv2pqyz3sz-fill" stroke="none" fill="#ffffff">
					<g>
						<text style="font: 20px Roboto, sans-serif; white-space: pre;" font-size="20px" font-family="Roboto, sans-serif">
							<tspan x="12" y="34" dominant-baseline="ideographic">데이터 가져오기</tspan>
						</text>
					</g>
				</g>
			</g>
			<g id="g-root-tx_aiworksp_142dwltqyxqfb-fill" data-item-order="1000000000" transform="translate(254, 350)">
				<g id="tx_aiworksp_142dwltqyxqfb-fill" stroke="none" fill="#ffffff">
					<g>
						<text
							x="80"
							y="20"
							text-anchor="middle"
							dominant-baseline="middle"
							style="font: 20px Roboto, sans-serif; white-space: pre;"
							font-size="20px"
							font-family="Roboto, sans-serif"
						>
							<tspan x="85" dy="0">AI</tspan>
							<tspan x="80" dy="24">WorkSpace</tspan>
						</text>
					</g>
				</g>
			</g>
			<g id="g-root-ic_1_zp2attqz65fm-fill" data-item-order="1000000000" transform="translate(228, 134)"></g>
			<g id="g-root-tx__1d0it75qz63up-fill" data-item-order="1000000000" transform="translate(114, 137)">
				<g id="tx__1d0it75qz63up-fill" stroke="none" fill="#ffffff">
					<g>
						<text style="font: 20px Roboto, sans-serif; white-space: pre;" font-size="20px" font-family="Roboto, sans-serif">
							<tspan x="19.03" y="34" dominant-baseline="ideographic">업무 자동화</tspan>
						</text>
					</g>
				</g>
			</g>
			<g id="g-root-tx__zqxq35qz4qa3-fill" data-item-order="1000000000" transform="translate(54, 461)">
				<g id="tx__zqxq35qz4qa3-fill" stroke="none" fill="#ffffff">
					<g>
						<text style="font: 20px Roboto, sans-serif; white-space: pre;" font-size="20px" font-family="Roboto, sans-serif">
							<tspan x="22.63" y="34" dominant-baseline="ideographic">코드 수정/생성 지원</tspan>
						</text>
					</g>
				</g>
			</g>
			<g id="g-root-ic_robo_vb47ypqz4r2c-fill" data-item-order="1000000000" transform="translate(240, 458)"></g>
			<g id="g-root-ic_shar_dg3cy9qz0hzc-fill" data-item-order="1000000000" transform="translate(364, 458)"></g>
			<g id="g-root-tx__hvwv2pqz0h73-fill" data-item-order="1000000000" transform="translate(400, 461)">
				<g id="tx__hvwv2pqz0h73-fill" stroke="none" fill="#ffffff">
					<g>
						<text style="font: 20px Roboto, sans-serif; white-space: pre;" font-size="20px" font-family="Roboto, sans-serif">
							<tspan x="12" y="34" dominant-baseline="ideographic">코드 실행</tspan>
						</text>
					</g>
				</g>
			</g>
			<g id="g-root-ro_qrjvblqyxouh-stroke" data-item-order="-23400" transform="translate(230, 272)"></g>
			<g id="g-root-ro_mg3osxqz4op9-stroke" data-item-order="-12960" transform="translate(42, 446)"></g>
			<g id="g-root-ro_909uttqyz4lp-stroke" data-item-order="-11016" transform="translate(416, 272)"></g>
			<g id="g-root-ro_959nipqz1vkd-stroke" data-item-order="-10368" transform="translate(340, 122)"></g>
			<g id="g-root-ro_v301u9qz4qhb-stroke" data-item-order="-9720" transform="translate(14, 272)"></g>
			<g id="g-root-ro_qu1ro1qz632j-stroke" data-item-order="-9072" transform="translate(102, 122)"></g>
			<g id="g-root-ro_909uttqz0irl-stroke" data-item-order="-7776" transform="translate(352, 446)"></g>
			<g id="g-root-cu_hyerf5qz64nf-stroke" data-item-order="0" transform="translate(334, 149)">
				<g id="cu_hyerf5qz64nf-stroke" fill="none" stroke-linecap="round" stroke-linejoin="round" stroke-miterlimit="4" stroke="#000000" stroke-width="2" stroke-dasharray="5.0, 7.0">
					<g>
						<path d="M 10 145L 10 128.1L 10 30.9C 10 19.357248 19.357248 10 30.899998 10L 31 10L 34 10"></path>
					</g>
				</g>
			</g>
			<g id="g-root-cu_93e89dqz632g-stroke" data-item-order="0" transform="translate(216, 500)">
				<g id="cu_93e89dqz632g-stroke" fill="none" stroke-linecap="round" stroke-linejoin="round" stroke-miterlimit="4" stroke="#000000" stroke-width="2" stroke-dasharray="5.0, 7.0">
					<g>
						<path d="M 28 10L 28 22L 28 34L 19 34L 10 34"></path>
					</g>
				</g>
			</g>
			<g id="g-root-tx_n8n_v3mixdqz39xi-stroke" data-item-order="0" transform="translate(174, 188)"></g>
			<g id="g-root-cu_4nkq4xqz63uy-stroke" data-item-order="0" transform="translate(216, 176)">
				<g id="cu_4nkq4xqz63uy-stroke" fill="none" stroke-linecap="round" stroke-linejoin="round" stroke-miterlimit="4" stroke="#000000" stroke-width="2" stroke-dasharray="5.0, 7.0">
					<g>
						<path d="M 28 10L 28 22L 28 34L 19 34L 10 34"></path>
					</g>
				</g>
			</g>
			<g id="g-root-cu_4nkq4xqz63v1-stroke" data-item-order="0" transform="translate(216, 176)">
				<g id="cu_4nkq4xqz63v1-stroke" fill="none" stroke-linecap="round" stroke-linejoin="round" stroke-miterlimit="4" stroke="#000000" stroke-width="2" stroke-dasharray="5.0, 7.0">
					<g>
						<path d="M 28 10L 28 17.5L 28 58C 27.999999 64.627415 22.627416 69.999998 16 69.999998L 15.9 70L 10 70"></path>
					</g>
				</g>
			</g>
			<g id="g-root-cu_7r80hqz64nb-stroke" data-item-order="0" transform="translate(382, 176)">
				<g id="cu_7r80hqz64nb-stroke" fill="none" stroke-linecap="round" stroke-linejoin="round" stroke-miterlimit="4" stroke="#000000" stroke-width="2" stroke-dasharray="5.0, 7.0">
					<g>
						<path d="M 10 10L 10 22L 10 34L 19 34L 28 34"></path>
					</g>
				</g>
			</g>
			<g id="g-root-cu_7r80hqz64ne-stroke" data-item-order="0" transform="translate(382, 176)">
				<g id="cu_7r80hqz64ne-stroke" fill="none" stroke-linecap="round" stroke-linejoin="round" stroke-miterlimit="4" stroke="#000000" stroke-width="2" stroke-dasharray="5.0, 7.0">
					<g>
						<path d="M 10 10L 10 17.5L 10 58C 10.000002 64.627417 15.372585 70 22.000002 69.999999L 22.1 70L 28 70"></path>
					</g>
				</g>
			</g>
			<g id="g-root-tx__hs60k1qz3big-stroke" data-item-order="0" transform="translate(406, 188)"></g>
			<g id="g-root-tx__m7ziohqz3aq7-stroke" data-item-order="0" transform="translate(102, 224)"></g>
			<g id="g-root-tx__dcciflqz3cap-stroke" data-item-order="0" transform="translate(406, 224)"></g>
			<g id="g-root-cu_hyerf5qz64nc-stroke" data-item-order="0" transform="translate(258, 149)">
				<g id="cu_hyerf5qz64nc-stroke" fill="none" stroke-linecap="round" stroke-linejoin="round" stroke-miterlimit="4" stroke="#000000" stroke-width="2" stroke-dasharray="5.0, 7.0">
					<g>
						<path d="M 34 145L 34 128.1L 34 30.9C 33.999998 19.357248 24.64275 10 13.1 10L 13 10L 10 10"></path>
					</g>
				</g>
			</g>
			<g id="g-root-cu_93e89dqz632j-stroke" data-item-order="0" transform="translate(216, 500)">
				<g id="cu_93e89dqz632j-stroke" fill="none" stroke-linecap="round" stroke-linejoin="round" stroke-miterlimit="4" stroke="#000000" stroke-width="2" stroke-dasharray="5.0, 7.0">
					<g>
						<path d="M 28 10L 28 17.5L 28 58C 27.999999 64.627415 22.627416 69.999998 16 69.999998L 15.9 70L 10 70"></path>
					</g>
				</g>
			</g>
			<g id="g-root-cu_me89jlqz63us-stroke" data-item-order="0" transform="translate(182, 299)">
				<g id="cu_me89jlqz63us-stroke" fill="none" stroke-linecap="round" stroke-linejoin="round" stroke-miterlimit="4" stroke="#000000" stroke-width="2" stroke-dasharray="5.0, 7.0">
					<g>
						<path d="M 58 37L 55 37L 54.9 37C 50.939934 36.982885 46.647411 35.702052 42.500002 33.3C 40.005522 31.898041 36.944719 28.369114 33.999999 23.499999C 31.05528 18.630885 27.994476 15.101958 25.499999 13.7C 21.352591 11.297948 17.060069 10.017115 13.1 10L 13 10L 10 10"></path>
					</g>
				</g>
			</g>
			<g id="g-root-cu_93e89dqz632l-stroke" data-item-order="0" transform="translate(382, 500)">
				<g id="cu_93e89dqz632l-stroke" fill="none" stroke-linecap="round" stroke-linejoin="round" stroke-miterlimit="4" stroke="#000000" stroke-width="2" stroke-dasharray="5.0, 7.0">
					<g>
						<path d="M 10 10L 10 22L 10 34L 19 34L 28 34"></path>
					</g>
				</g>
			</g>
			<g id="g-root-cu_4nkq4xqz63uw-stroke" data-item-order="0" transform="translate(382, 500)">
				<g id="cu_4nkq4xqz63uw-stroke" fill="none" stroke-linecap="round" stroke-linejoin="round" stroke-miterlimit="4" stroke="#000000" stroke-width="2" stroke-dasharray="5.0, 7.0">
					<g>
						<path d="M 10 10L 10 17.5L 10 58C 10.000002 64.627417 15.372585 70 22.000002 69.999999L 22.1 70L 28 70"></path>
					</g>
				</g>
			</g>
			<g id="g-root-cu_dil9apqz64nj-stroke" data-item-order="0" transform="translate(386, 299)">
				<g id="cu_dil9apqz64nj-stroke" fill="none" stroke-linecap="round" stroke-linejoin="round" stroke-miterlimit="4" stroke="#000000" stroke-width="2" stroke-dasharray="5.0, 7.0">
					<g>
						<path d="M 10 37L 13 37L 13.1 37C 17.060069 36.982885 21.352592 35.702052 25.500001 33.3C 27.994475 31.898042 31.055279 28.369115 33.999998 23.5C 36.944718 18.630885 40.005521 15.101959 42.499998 13.700001C 46.647412 11.297949 50.939934 10.017115 54.900003 10L 55 10L 58 10"></path>
					</g>
				</g>
			</g>
			<g id="g-root-tx__959nipqz1vke-stroke" data-item-order="0" transform="translate(38, 338)"></g>
			<g id="g-root-cu_dil9apqz65fq-stroke" data-item-order="0" transform="translate(140, 326)">
				<g id="cu_dil9apqz65fq-stroke" fill="none" stroke-linecap="round" stroke-linejoin="round" stroke-miterlimit="4" stroke="#000000" stroke-width="2" stroke-dasharray="5.0, 7.0">
					<g>
						<path d="M 28 10L 28 22L 28 34L 19 34L 10 34"></path>
					</g>
				</g>
			</g>
			<g id="g-root-cu_dil9apqz65ft-stroke" data-item-order="0" transform="translate(140, 326)">
				<g id="cu_dil9apqz65ft-stroke" fill="none" stroke-linecap="round" stroke-linejoin="round" stroke-miterlimit="4" stroke="#000000" stroke-width="2" stroke-dasharray="5.0, 7.0">
					<g>
						<path d="M 28 10L 28 17.5L 28 58C 27.999999 64.627415 22.627416 69.999998 16 69.999998L 15.9 70L 10 70"></path>
					</g>
				</g>
			</g>
			<g id="g-root-cu_dil9apqz65fv-stroke" data-item-order="0" transform="translate(458, 326)">
				<g id="cu_dil9apqz65fv-stroke" fill="none" stroke-linecap="round" stroke-linejoin="round" stroke-miterlimit="4" stroke="#000000" stroke-width="2" stroke-dasharray="5.0, 7.0">
					<g>
						<path d="M 10 10L 10 22L 10 34L 19 34L 28 34"></path>
					</g>
				</g>
			</g>
			<g id="g-root-cu_dil9apqz65fy-stroke" data-item-order="0" transform="translate(458, 326)">
				<g id="cu_dil9apqz65fy-stroke" fill="none" stroke-linecap="round" stroke-linejoin="round" stroke-miterlimit="4" stroke="#000000" stroke-width="2" stroke-dasharray="5.0, 7.0">
					<g>
						<path d="M 10 10L 10 17.5L 10 58C 10.000002 64.627417 15.372585 70 22.000002 69.999999L 22.1 70L 28 70"></path>
					</g>
				</g>
			</g>
			<g id="g-root-tx_snowflak_9mn9tqz1x4w-stroke" data-item-order="0" transform="translate(482, 338)"></g>
			<g id="g-root-tx__4pg5e9qz1wcn-stroke" data-item-order="0" transform="translate(50, 374)"></g>
			<g id="g-root-tx__1qf3p01qz1xqh-stroke" data-item-order="0" transform="translate(482, 374)"></g>
			<g id="g-root-cu_hyerf5qz64n6-stroke" data-item-order="0" transform="translate(258, 410)">
				<g id="cu_hyerf5qz64n6-stroke" fill="none" stroke-linecap="round" stroke-linejoin="round" stroke-miterlimit="4" stroke="#000000" stroke-width="2" stroke-dasharray="5.0, 7.0">
					<g>
						<path d="M 34 10L 34 17.9L 34 52.1C 34 63.642753 24.64275 73.000002 13.099999 73.000001L 13 73L 10 73"></path>
					</g>
				</g>
			</g>
			<g id="g-root-cu_hyerf5qz64n9-stroke" data-item-order="0" transform="translate(334, 410)">
				<g id="cu_hyerf5qz64n9-stroke" fill="none" stroke-linecap="round" stroke-linejoin="round" stroke-miterlimit="4" stroke="#000000" stroke-width="2" stroke-dasharray="5.0, 7.0">
					<g>
						<path d="M 10 10L 10 17.9L 10 52.1C 9.999998 63.64275 19.357246 72.999999 30.899997 72.999999L 31 73L 34 73"></path>
					</g>
				</g>
			</g>
			<g id="g-root-tx__18egk7lqz3bic-stroke" data-item-order="0" transform="translate(406, 512)"></g>
			<g id="g-root-tx_llmapi_18egk7lqz3bib-stroke" data-item-order="0" transform="translate(150, 548)"></g>
			<g id="g-root-tx_aiworksp_7r80hqz64ng-stroke" data-item-order="0" transform="translate(0, 38)"></g>
			<g id="g-root-tx__zitjypqz3cb1-stroke" data-item-order="0" transform="translate(406, 548)"></g>
			<g id="g-root-tx_aicodeas_1lpx2kxqz39xe-stroke" data-item-order="0" transform="translate(78, 512)"></g>
			<g id="g-root-tx_it_mg3osxqz1x57-stroke" data-item-order="1000000000" transform="translate(388, 137)"></g>
			<g id="g-root-tx__18egk7lqz4owd-stroke" data-item-order="1000000000" transform="translate(26, 287)"></g>
			<g id="g-root-ic_1_v301u9qz4qha-stroke" data-item-order="1000000000" transform="translate(152, 284)">
				<g id="ic_1_v301u9qz4qha-stroke" fill="none" stroke-linecap="round" stroke-linejoin="round" stroke-miterlimit="4" stroke="#000000" stroke-width="2">
					<g>
						<path d="M 34.375 25.625L 34.375 18.0975C 34.377071 13.971159 31.032591 10.624999 26.90625 10.625L 11.875 10.625C 11.184644 10.625 10.625 11.184644 10.625 11.875L 10.625 38.125C 10.625 38.815353 11.184644 39.375 11.875 39.375L 15.625 39.375M 28.125 10.73L 28.125 15.625C 28.125 16.315355 28.684643 16.875 29.375 16.875L 34.275002 16.875M 24.375 39.375C 21.613577 39.375 19.375 37.136425 19.375 34.375C 19.375 31.613577 21.613577 29.375 24.375 29.375M 31.875 29.395L 29.192501 29.395C 28.117002 29.394228 27.182297 30.133486 26.935287 31.180233C 26.688274 32.226982 27.193871 33.306126 28.15625 33.786251L 30.59375 35.005001C 31.554665 35.485844 32.059029 36.564144 31.81218 37.609909C 31.565327 38.655678 30.63201 39.394611 29.557501 39.395L 26.875 39.395M 39.375 29.375L 39.375 32.25C 39.374653 34.839935 38.492996 37.352661 36.875 39.375C 35.257008 37.352661 34.375347 34.839935 34.375 32.25L 34.375 29.375"></path>
					</g>
				</g>
			</g>
			<g id="g-root-ic_layo_zn6vkhqyxo1s-stroke" data-item-order="1000000000" transform="translate(284, 296)">
				<g id="ic_layo_zn6vkhqyxo1s-stroke" fill="none" stroke-linecap="round" stroke-linejoin="round" stroke-miterlimit="4" stroke="#000000" stroke-width="2">
					<g>
						<path d="M 13 10.994L 53 10.994C 53 10.994 55 10.994 55 12.993999L 55 52.993999C 55 52.993999 55 54.993999 53 54.993999L 13 54.993999C 13 54.993999 11 54.993999 11 52.993999L 11 12.993999C 11 12.993999 11 10.994 13 10.994M 23 10.994L 23 54.993999M 55 32.993999L 23 32.993999"></path>
					</g>
				</g>
			</g>
			<g id="g-root-ic_code_i0a6ohqz1xxg-stroke" data-item-order="1000000000" transform="translate(352, 134)">
				<g id="ic_code_i0a6ohqz1xxg-stroke" fill="none" stroke-linecap="round" stroke-linejoin="round" stroke-miterlimit="4" stroke="#000000" stroke-width="2">
					<g>
						<path d="M 10 10M 21.25 22.5L 18.75 25L 21.25 27.5M 10 10M 28.75 22.5L 31.25 25L 28.75 27.5M 10 10M 24.124874 28.75L 25.999874 21.25M 25 15.437475C 26.242624 15.437475 27.25 14.430125 27.25 13.187488C 27.25 11.94485 26.242624 10.9375 25 10.9375C 23.757376 10.9375 22.75 11.94485 22.75 13.187488C 22.75 14.430125 23.757376 15.437475 25 15.437475ZM 10 10M 26.875126 14.437375L 30.000124 16.437374L 30.250126 13.937375M 14.875025 21.437563C 16.117674 21.437563 17.12505 20.430225 17.12505 19.187588C 17.12505 17.944937 16.117674 16.937563 14.875025 16.937563C 13.632387 16.937563 12.62505 17.944937 12.62505 19.187588C 12.62505 20.430225 13.632387 21.437563 14.875025 21.437563ZM 10 10M 16.875074 18.187563L 20.125088 16.562574L 18.125074 15.062562M 14.875025 33.062374C 16.117674 33.062374 17.12505 32.055 17.12505 30.812248C 17.12505 29.569624 16.117674 28.562376 14.875025 28.562376C 13.632387 28.562376 12.62505 29.569624 12.62505 30.812248C 12.62505 32.055 13.632387 33.062374 14.875025 33.062374ZM 10 10M 15.000151 28.562376L 15.250162 24.9375L 12.875137 25.812376M 25 39.062622C 26.242624 39.062622 27.25 38.055252 27.25 36.812626C 27.25 35.57 26.242624 34.562626 25 34.562626C 23.757376 34.562626 22.75 35.57 22.75 36.812626C 22.75 38.055252 23.757376 39.062622 25 39.062622ZM 10 10M 22.959 35.859375L 19.749989 33.687748L 19.375 36.187748M 35.125 33.062374C 36.367626 33.062374 37.375 32.055 37.375 30.812248C 37.375 29.569624 36.367626 28.562376 35.125 28.562376C 33.882374 28.562376 32.875 29.569624 32.875 30.812248C 32.875 32.055 33.882374 33.062374 35.125 33.062374ZM 33.159126 31.914001L 29.75 33.5625L 31.75 35.0625M 35.125 21.437563C 36.367626 21.437563 37.375 20.430225 37.375 19.187588C 37.375 17.944937 36.367626 16.937563 35.125 16.937563C 33.882374 16.937563 32.875 17.944937 32.875 19.187588C 32.875 20.430225 33.882374 21.437563 35.125 21.437563ZM 10 10M 35.124874 21.437376L 34.875 25.187376L 37.125 24.187376"></path>
					</g>
				</g>
			</g>
			<g id="g-root-ic_1_909uttqyz4lo-stroke" data-item-order="1000000000" transform="translate(428, 284)">
				<g id="ic_1_909uttqyz4lo-stroke" fill="none" stroke-linecap="round" stroke-linejoin="round" stroke-miterlimit="4" stroke="#000000" stroke-width="2">
					<g>
						<path d="M 24.6875 32.1875C 28.484499 32.1875 31.5625 29.109499 31.5625 25.3125C 31.5625 21.515537 28.484499 18.4375 24.6875 18.4375C 20.890537 18.4375 17.8125 21.515537 17.8125 25.3125C 17.8125 29.109499 20.890537 32.1875 24.6875 32.1875ZM 21.5625 25.3125L 27.8125 25.3125M 10 10M 25.3125 22.8125L 27.8125 25.3125L 25.3125 27.8125M 39.0625 36.5625C 39.0625 37.9375 37.9375 39.0625 36.5625 39.0625L 13.4375 39.0625C 12.0625 39.0625 10.9375 37.9375 10.9375 36.5625L 10.9375 13.4375C 10.9375 12.0625 12.0625 10.9375 13.4375 10.9375L 36.5625 10.9375C 37.9375 10.9375 39.0625 12.0625 39.0625 13.4375L 39.0625 36.5625ZM 19.937437 10.9375L 19.937437 15.687488M 29.3125 10.9375L 29.3125 15.687488M 10 10M 15.562512 30.062374L 10.9375 30.062374M 15.562438 20.3125L 10.9375 20.3125M 29.3125 39.062378L 29.3125 35.062374M 19.937437 39.062378L 19.937437 35.062374M 33.6875 20.3125L 39.0625 20.3125M 33.6875 30.062374L 39.05275 30.062374"></path>
					</g>
				</g>
			</g>
			<g id="g-root-tx__hvwv2pqyz3sz-stroke" data-item-order="1000000000" transform="translate(464, 287)"></g>
			<g id="g-root-tx_aiworksp_142dwltqyxqfb-stroke" data-item-order="1000000000" transform="translate(254, 350)"></g>
			<g id="g-root-ic_1_zp2attqz65fm-stroke" data-item-order="1000000000" transform="translate(228, 134)">
				<g id="ic_1_zp2attqz65fm-stroke" fill="none" stroke-linecap="round" stroke-linejoin="round" stroke-miterlimit="4" stroke="#000000" stroke-width="2">
					<g>
						<path d="M 22.20125 33.49625L 15.66375 28.796249M 18.807501 25.216251L 24.18125 29.199999M 11.02625 24.855C 11.02625 27.008221 12.77178 28.75375 14.925 28.75375C 17.07822 28.75375 18.82375 27.008221 18.82375 24.855C 18.82375 22.70178 17.07822 20.956251 14.925 20.956251C 12.77178 20.956251 11.02625 22.70178 11.02625 24.855M 18.49625 23.29125L 24.331249 17.608749M 22.539999 13.51125L 14.690001 20.963749M 22.424999 14.54625C 22.424675 16.431843 23.953157 17.960588 25.838749 17.960588C 27.72434 17.960588 29.252825 16.431843 29.252499 14.546249C 29.252825 12.660658 27.72434 11.13191 25.838749 11.13191C 23.953157 11.13191 22.424675 12.660658 22.424999 14.546249M 29 15.83625L 32.092499 19C 32.736763 19.658016 32.751064 20.705896 32.125 21.38125L 32.125 21.381248C 31.803484 21.72744 31.354124 21.92672 30.881699 21.932625C 30.409271 21.93853 29.955072 21.750544 29.625 21.412502L 26.224998 17.938749M 11.3525 38.868748L 38.852501 38.868748M 22.20125 35.83625L 22.20125 32.43375C 22.238005 30.450748 23.856033 28.862432 25.839375 28.862432C 27.822718 28.862432 29.440746 30.450748 29.477501 32.43375L 29.477499 35.783752M 14.3 24.647501C 14.3 24.992678 14.579823 25.272501 14.925 25.272501C 15.270178 25.272501 15.55 24.992678 15.55 24.647501C 15.55 24.302322 15.270178 24.022501 14.925 24.022501C 14.579823 24.022501 14.3 24.302322 14.3 24.647501M 25.213749 32.40625C 25.213749 32.751431 25.493572 33.03125 25.838749 33.03125C 26.183928 33.03125 26.463749 32.751431 26.463749 32.40625C 26.463749 32.061073 26.183928 31.78125 25.838749 31.78125C 25.493572 31.78125 25.213749 32.061073 25.213749 32.40625M 21.473749 35.83625L 30.144999 35.83625C 30.835358 35.83625 31.394999 36.395893 31.394999 37.08625L 31.394999 38.868748L 31.394999 38.868748L 20.223749 38.868748L 20.223749 38.868748L 20.223749 37.08625C 20.223749 36.395893 20.783394 35.83625 21.473749 35.83625ZM 31.75 18.63625C 31.986919 18.339533 32.3237 18.139153 32.697502 18.0725C 34.249176 17.788521 35.846855 18.20796 37.058941 19.21751C 38.27103 20.227058 38.972458 21.722553 38.973751 23.300001C 38.973751 24.162945 38.274197 24.862501 37.411251 24.862501C 36.548306 24.862501 35.848751 24.162945 35.848751 23.300001C 35.847851 22.648012 35.556664 22.030287 35.054306 21.614679C 34.551952 21.199072 33.890617 21.028751 33.25 21.15C 33.01144 21.192165 32.766373 21.178907 32.533752 21.111252M 31.4025 21.782499C 31.455261 22.077248 31.422289 22.380945 31.307503 22.657501C 31.050968 23.257044 31.074965 23.939726 31.372967 24.519775C 31.670969 25.099827 32.211967 25.516899 32.848751 25.657499C 33.691673 25.843204 34.224457 26.677076 34.03875 27.52C 33.853043 28.362925 33.019176 28.895706 32.17625 28.709999C 30.637434 28.36875 29.32938 27.362255 28.60524 25.962246C 27.881096 24.562239 27.815535 22.913076 28.426249 21.459999C 28.51322 21.24922 28.645517 21.060163 28.813751 20.90625"></path>
					</g>
				</g>
			</g>
			<g id="g-root-tx__1d0it75qz63up-stroke" data-item-order="1000000000" transform="translate(114, 137)"></g>
			<g id="g-root-tx__zqxq35qz4qa3-stroke" data-item-order="1000000000" transform="translate(54, 461)"></g>
			<g id="g-root-ic_robo_vb47ypqz4r2c-stroke" data-item-order="1000000000" transform="translate(240, 458)">
				<g id="ic_robo_vb47ypqz4r2c-stroke" fill="none" stroke-linecap="round" stroke-linejoin="round" stroke-miterlimit="4" stroke="#000000" stroke-width="2">
					<g>
						<path d="M 10 10M 30.021374 19.643551L 35.857376 25.479626M 24.359125 36.793125L 16.625875 38.815998L 18.643263 31.061375L 31.821125 17.838787C 33.390251 16.265362 35.968002 16.152975 37.649124 17.838787C 39.21825 19.412199 39.21825 21.997036 37.649124 23.682875L 24.359125 36.793125ZM 13.67375 14.34625L 18.98875 14.34625C 18.98875 14.34625 21.48875 14.34625 21.48875 16.846251L 21.48875 19.87125C 21.48875 19.87125 21.48875 22.37125 18.98875 22.37125L 13.67375 22.37125C 13.67375 22.37125 11.17375 22.37125 11.17375 19.87125L 11.17375 16.846251C 11.17375 16.846251 11.17375 14.34625 13.67375 14.34625M 10 10M 16.330563 11.180401L 16.330563 14.3457M 10 10M 14.577638 17.747337L 14.577638 18.969725M 10 10M 18.085938 17.747337L 18.085938 18.969725"></path>
					</g>
				</g>
			</g>
			<g id="g-root-ic_shar_dg3cy9qz0hzc-stroke" data-item-order="1000000000" transform="translate(364, 458)">
				<g id="ic_shar_dg3cy9qz0hzc-stroke" fill="none" stroke-linecap="round" stroke-linejoin="round" stroke-miterlimit="4" stroke="#000000" stroke-width="2">
					<g>
						<path d="M 24.41375 32.817501C 24.41375 34.3708 25.672949 35.630001 27.22625 35.630001C 28.779551 35.630001 30.03875 34.3708 30.03875 32.817501C 30.03875 31.2642 28.779551 30.004999 27.22625 30.004999C 25.672949 30.004999 24.41375 31.2642 24.41375 32.817501ZM 33.78875 36.567501C 33.78875 38.1208 35.047947 39.380001 36.60125 39.380001C 38.154552 39.380001 39.41375 38.1208 39.41375 36.567501C 39.41375 35.014198 38.154552 33.755001 36.60125 33.755001C 35.047947 33.755001 33.78875 35.014198 33.78875 36.567501ZM 33.78875 27.192499C 33.78875 28.745802 35.047947 30.004999 36.60125 30.004999C 38.154552 30.004999 39.41375 28.745802 39.41375 27.192499C 39.41375 25.639198 38.154552 24.379999 36.60125 24.379999C 35.047947 24.379999 33.78875 25.639198 33.78875 27.192499ZM 29.6325 31.373751L 34.195 28.63625M 29.83625 33.861252L 33.9925 35.52375M 24.41375 39.375L 11.91375 39.375C 11.223394 39.375 10.66375 38.815353 10.66375 38.125L 10.66375 11.875C 10.66375 11.184644 11.223394 10.625 11.91375 10.625L 28.530001 10.625C 28.862755 10.627385 29.180824 10.762351 29.41375 11L 34.047501 15.625C 34.281937 15.859366 34.413677 16.177258 34.41375 16.508749L 34.41375 20.625M 14.41375 16.880001L 14.41375 21.879999M 25.66375 16.880001L 25.66375 21.879999M 21.91375 25.629999L 21.91375 30.629999M 29.41375 16.880001L 29.41375 21.879999M 20.03875 16.875C 21.074284 16.875 21.91375 17.714466 21.91375 18.75L 21.91375 20C 21.91375 21.035534 21.074284 21.875 20.03875 21.875C 19.003216 21.875 18.16375 21.035534 18.16375 20L 18.16375 18.75C 18.16375 17.714466 19.003216 16.875 20.03875 16.875ZM 16.28875 25.625C 17.324284 25.625 18.16375 26.464466 18.16375 27.5L 18.16375 28.75C 18.16375 29.785534 17.324284 30.625 16.28875 30.625C 15.253216 30.625 14.41375 29.785534 14.41375 28.75L 14.41375 27.5C 14.41375 26.464466 15.253216 25.625 16.28875 25.625Z"></path>
					</g>
				</g>
			</g>
			<g id="g-root-tx__hvwv2pqz0h73-stroke" data-item-order="1000000000" transform="translate(400, 461)"></g>
		</g>
	</g>
	<path id="w5v9shriww02" d="M65.283 12.757a.35.35 0 0 0 .584.157l5.203-5.141-6.183 3.523.396 1.461zm-2.216-11.7a.35.35 0 0 0-.522.305v3.111l3.276-1.868-2.754-1.548zm3.728 2.105l-4.25 2.421v2.445l6.391-3.644-2.141-1.222zm4.708 3.303a.35.35 0 0 0 0-.609l-1.592-.9-7.365 4.199v1.782a.35.35 0 0 0 .523.305l8.435-4.777z M44.542 2.513c0-.433.355-.783.792-.783s.792.35.792.783-.355.783-.792.783-.792-.35-.792-.783zm59.171 0c0-.433.355-.783.792-.783s.792.35.792.783-.355.783-.792.783-.792-.35-.792-.783zm-85.951 7.636h-1.27v-.487c-.276.201-.864.609-1.881.609-1.202 0-2.274-.794-2.137-2.078.118-1.106 1.153-1.584 1.848-1.727l2.17-.345c0-.539-.29-.956-1.064-1.006s-1.21.305-1.571 1.017l-1.124-.605c1.218-2.631 5.029-1.764 5.029.414v4.207zm-1.27-2.86c.006.396-.062 1.112-.819 1.59-.587.37-1.841.299-1.903-.395-.049-.555.461-.791.906-.898l1.816-.297zm72.662 2.86h-1.27v-.487c-.276.201-.864.609-1.881.609-1.202 0-2.274-.794-2.137-2.078.118-1.106 1.153-1.584 1.848-1.727l2.17-.345c0-.539-.29-.956-1.064-1.006s-1.21.305-1.571 1.017l-1.124-.605c1.218-2.631 5.029-1.764 5.029.414v4.207zm-1.27-2.86c.006.396-.062 1.112-.82 1.59-.587.37-1.841.299-1.903-.395-.049-.555.461-.791.906-.898l1.816-.297zM99.096 10.149H97.85v-8.45h1.246v4.895l2.68-2.559h1.738l-2.633 2.535 2.715 3.578h-1.556l-2.077-2.707-.867.844v1.863zm6.053-6.114h-1.255v6.113h1.255V4.035zm-59.2 0h-1.255v6.113h1.255V4.035zm5.584 6.113V1.697h1.255v2.695c.361-.346 1-.485 1.47-.485 1.452 0 2.477 1.082 2.457 2.448v3.792h-1.27v-3.68c0-.408-.214-1.339-1.315-1.339-.968 0-1.342.756-1.342 1.339v3.681h-1.255zm-4.76-4.894V4.039h.621a.45.45 0 0 0 .45-.45v-.855h1.251v1.305h1.309v1.215h-1.309v3.109c0 .293.105.664.648.664.365 0 .531-.035.736-.07v1.137s-.361.113-.857.113c-1.398 0-1.777-1.051-1.777-1.788V5.254h-1.071zM36.528 4.039h-1.394l2.191 6.106h1.125l1.234-3.918 1.238 3.918h1.129l2.188-6.106h-1.383l-1.359 3.93-1.256-3.93h-1.124l-1.242 3.957-1.348-3.957zM26.212 7.141c-.02 1.566 1.187 3.129 3.223 3.129 1.566 0 2.383-.918 2.734-1.719L31.172 8c-.315.399-.801 1.094-1.738 1.094-1.145 0-1.825-.781-1.891-1.52h4.625c.074-.284.148-.995-.03-1.559-.336-1.064-1.221-2.102-2.839-2.102s-3.088 1.152-3.088 3.227zm1.363-.75h3.348c-.055-.43-.566-1.301-1.623-1.301a1.79 1.79 0 0 0-1.725 1.301zm-8.758.75c.038 1.758 1.277 3.133 3.145 3.133 1.074 0 1.723-.477 1.961-.672v.547h1.242V1.703h-1.258v2.888c-.414-.36-1.062-.68-1.93-.68-1.91 0-3.198 1.473-3.16 3.23zm1.309-.08c0 1.119.723 1.978 1.836 1.978a1.88 1.88 0 0 0 1.94-1.904c0-1.371-1.011-1.99-1.972-1.99s-1.805.798-1.805 1.916zm76.683-.028C96.771 5.275 95.532 3.9 93.664 3.9c-1.074 0-1.723.477-1.961.672v-.547h-1.242v8.22h1.258V9.583c.414.36 1.063.68 1.93.68 1.91 0 3.198-1.473 3.16-3.23zm-1.309.08c0-1.119-.723-1.978-1.836-1.978a1.88 1.88 0 0 0-1.94 1.904c0 1.371 1.011 1.99 1.972 1.99S95.5 8.231 95.5 7.113zM106.441 10.173V4.036h1.254v.382c.361-.346 1-.485 1.47-.485 1.452 0 2.477 1.082 2.457 2.448v3.792h-1.27V6.492c0-.408-.214-1.339-1.315-1.339-.969 0-1.342.756-1.342 1.339v3.681h-1.254zm-30.383-.021V1.824h1.084l4.215 5.777V1.824h1.32v8.328h-1.094l-4.207-5.796v5.796h-1.319zM5.24 10.149H4V2.377h1.014l2.664 3.597 2.654-3.592h1.03v7.766h-1.256V4.762L7.678 8.068 5.24 4.742v5.407z" transform="translate(527.9501342773438, 615.9500732421875)" fill="#80808088" stroke="none"></path>
</svg>