<svg width="3284" height="789" xmlns="http://www.w3.org/2000/svg" xmlns:xlink="http://www.w3.org/1999/xlink" xml:space="preserve" overflow="hidden"><g transform="translate(-146 -937)"><path d="M186.264 1014.51C186.264 993.944 202.941 977.275 223.514 977.275L223.514 940.044C182.369 940.044 149.014 973.382 149.014 1014.51L186.264 1014.51ZM670.514 977.275 670.514 940.044 223.514 940.044 223.514 977.275 670.514 977.275ZM670.514 940.044C711.659 940.044 745.014 973.382 745.014 1014.51L707.764 1014.51C707.764 993.944 691.085 977.275 670.514 977.275L670.514 940.044ZM745.014 1349.58 745.014 1014.51 707.764 1014.51 707.764 1349.58 745.014 1349.58ZM149.014 1014.51 149.014 1349.58 186.264 1349.58 186.264 1014.51 149.014 1014.51ZM223.514 1386.81C202.941 1386.81 186.264 1370.14 186.264 1349.58L149.014 1349.58 149.014 1424.04 223.514 1424.04 223.514 1386.81ZM745.014 1349.58 707.764 1349.58C707.764 1370.14 691.085 1386.81 670.514 1386.81L670.514 1424.04 745.014 1424.04 745.014 1349.58ZM223.514 1386.81 409.764 1386.81 438.235 1415.27C443.084 1420.12 450.943 1420.12 455.792 1415.27L484.264 1386.81 670.514 1386.81 670.514 1424.04 223.514 1424.04 223.514 1386.81Z" fill="#C88F42" fill-rule="evenodd"/><path d="M856.342 1014.51C856.342 993.944 873.019 977.275 893.592 977.275L893.592 940.044C852.447 940.044 819.092 973.382 819.092 1014.51L856.342 1014.51ZM1340.59 977.275 1340.59 940.044 893.592 940.044 893.592 977.275 1340.59 977.275ZM1340.59 940.044C1381.74 940.044 1415.09 973.382 1415.09 1014.51L1377.84 1014.51C1377.84 993.944 1361.16 977.275 1340.59 977.275L1340.59 940.044ZM1415.09 1349.58 1415.09 1014.51 1377.84 1014.51 1377.84 1349.58 1415.09 1349.58ZM819.092 1014.51 819.092 1349.58 856.342 1349.58 856.342 1014.51 819.092 1014.51ZM893.592 1386.81C873.019 1386.81 856.342 1370.14 856.342 1349.58L819.092 1349.58 819.092 1424.04 893.592 1424.04 893.592 1386.81ZM1415.09 1349.58 1377.84 1349.58C1377.84 1370.14 1361.16 1386.81 1340.59 1386.81L1340.59 1424.04 1415.09 1424.04 1415.09 1349.58ZM893.592 1386.81 1079.84 1386.81 1108.31 1415.27C1113.16 1420.12 1121.02 1420.12 1125.87 1415.27L1154.34 1386.81 1340.59 1386.81 1340.59 1424.04 893.592 1424.04 893.592 1386.81Z" fill="#F58220" fill-rule="evenodd"/><path d="M1527.36 1014.51C1527.36 993.944 1544.01 977.275 1564.54 977.275L1564.54 940.044C1523.47 940.044 1490.17 973.382 1490.17 1014.51L1527.36 1014.51ZM2010.79 977.275 2010.79 940.044 1564.54 940.044 1564.54 977.275 2010.79 977.275ZM2010.79 940.044C2051.87 940.044 2085.17 973.382 2085.17 1014.51L2047.98 1014.51C2047.98 993.944 2031.33 977.275 2010.79 977.275L2010.79 940.044ZM2085.17 1349.58 2085.17 1014.51 2047.98 1014.51 2047.98 1349.58 2085.17 1349.58ZM1490.17 1014.51 1490.17 1349.58 1527.36 1349.58 1527.36 1014.51 1490.17 1014.51ZM1564.54 1386.81C1544.01 1386.81 1527.36 1370.14 1527.36 1349.58L1490.17 1349.58 1490.17 1424.04 1564.54 1424.04 1564.54 1386.81ZM2085.17 1349.58 2047.98 1349.58C2047.98 1370.14 2031.33 1386.81 2010.79 1386.81L2010.79 1424.04 2085.17 1424.04 2085.17 1349.58ZM1564.54 1386.81 1750.48 1386.81 1778.91 1415.27C1783.75 1420.12 1791.59 1420.12 1796.43 1415.27L1824.86 1386.81 2010.79 1386.81 2010.79 1424.04 1564.54 1424.04 1564.54 1386.81Z" fill="#AE634E" fill-rule="evenodd"/><path d="M2197.5 1014.51C2197.5 993.944 2214.18 977.275 2234.75 977.275L2234.75 940.044C2193.6 940.044 2160.25 973.382 2160.25 1014.51L2197.5 1014.51ZM2681.75 977.275 2681.75 940.044 2234.75 940.044 2234.75 977.275 2681.75 977.275ZM2681.75 940.044C2722.89 940.044 2756.25 973.382 2756.25 1014.51L2719 1014.51C2719 993.944 2702.32 977.275 2681.75 977.275L2681.75 940.044ZM2756.25 1349.58 2756.25 1014.51 2719 1014.51 2719 1349.58 2756.25 1349.58ZM2160.25 1014.51 2160.25 1349.58 2197.5 1349.58 2197.5 1014.51 2160.25 1014.51ZM2234.75 1386.81C2214.18 1386.81 2197.5 1370.14 2197.5 1349.58L2160.25 1349.58 2160.25 1424.04 2234.75 1424.04 2234.75 1386.81ZM2756.25 1349.58 2719 1349.58C2719 1370.14 2702.32 1386.81 2681.75 1386.81L2681.75 1424.04 2756.25 1424.04 2756.25 1349.58ZM2234.75 1386.81 2421 1386.81 2449.47 1415.27C2454.32 1420.12 2462.18 1420.12 2467.03 1415.27L2495.5 1386.81 2681.75 1386.81 2681.75 1424.04 2234.75 1424.04 2234.75 1386.81Z" fill="#775159" fill-rule="evenodd"/><path d="M2867.58 1014.51C2867.58 993.944 2884.25 977.275 2904.83 977.275L2904.83 940.044C2863.68 940.044 2830.33 973.382 2830.33 1014.51L2867.58 1014.51ZM3351.83 977.275 3351.83 940.044 2904.83 940.044 2904.83 977.275 3351.83 977.275ZM3351.83 940.044C3392.97 940.044 3426.33 973.382 3426.33 1014.51L3389.08 1014.51C3389.08 993.944 3372.4 977.275 3351.83 977.275L3351.83 940.044ZM3426.33 1349.58 3426.33 1014.51 3389.08 1014.51 3389.08 1349.58 3426.33 1349.58ZM2830.33 1014.51 2830.33 1349.58 2867.58 1349.58 2867.58 1014.51 2830.33 1014.51ZM2904.83 1386.81C2884.25 1386.81 2867.58 1370.14 2867.58 1349.58L2830.33 1349.58 2830.33 1424.04 2904.83 1424.04 2904.83 1386.81ZM3426.33 1349.58 3389.08 1349.58C3389.08 1370.14 3372.4 1386.81 3351.83 1386.81L3351.83 1424.04 3426.33 1424.04 3426.33 1349.58ZM2904.83 1386.81 3091.08 1386.81 3119.55 1415.27C3124.4 1420.12 3132.26 1420.12 3137.1 1415.27L3165.58 1386.81 3351.83 1386.81 3351.83 1424.04 2904.83 1424.04 2904.83 1386.81Z" fill="#343E62" fill-rule="evenodd"/><path d="M745.014 1424.1 745.014 1647.6 149.014 1647.6 149.014 1424.1 745.014 1424.1ZM223.514 1722.1C182.369 1722.1 149.014 1688.75 149.014 1647.6L223.514 1647.6 223.514 1722.1ZM745.014 1647.6 670.514 1647.6 670.514 1722.1C711.659 1722.1 745.014 1688.75 745.014 1647.6ZM223.514 1722.1 223.514 1647.6 670.514 1647.6 670.514 1722.1 223.514 1722.1Z" fill="#C88F42" fill-rule="evenodd"/><text fill="#FFFFFF" font-family="KoPubDotum_Pro Medium,KoPubDotum_Pro Medium_MSFontService,sans-serif" font-weight="400" font-size="64" transform="matrix(1 0 0 1 306.522 1555)">내부데이터</text><text fill="#FFFFFF" font-family="KoPubDotum_Pro Medium,KoPubDotum_Pro Medium_MSFontService,sans-serif" font-weight="400" font-size="64" transform="matrix(1 0 0 1 293.62 1632)">발견</text><text fill="#FFFFFF" font-family="KoPubDotum_Pro Medium,KoPubDotum_Pro Medium_MSFontService,sans-serif" font-weight="400" font-size="64" transform="matrix(1 0 0 1 424.245 1632)">&amp; </text><text fill="#FFFFFF" font-family="KoPubDotum_Pro Medium,KoPubDotum_Pro Medium_MSFontService,sans-serif" font-weight="400" font-size="64" transform="matrix(1 0 0 1 487.838 1632)">활용</text><path d="M1415.09 1424.1 1415.09 1647.6 819.092 1647.6 819.092 1424.1 1415.09 1424.1ZM893.592 1722.1C852.447 1722.1 819.092 1688.75 819.092 1647.6L893.592 1647.6 893.592 1722.1ZM1415.09 1647.6 1340.59 1647.6 1340.59 1722.1C1381.74 1722.1 1415.09 1688.75 1415.09 1647.6ZM893.592 1722.1 893.592 1647.6 1340.59 1647.6 1340.59 1722.1 893.592 1722.1Z" fill="#F58220" fill-rule="evenodd"/><text fill="#FFFFFF" font-family="KoPubDotum_Pro Medium,KoPubDotum_Pro Medium_MSFontService,sans-serif" font-weight="400" font-size="64" transform="matrix(1 0 0 1 939.583 1555)">업무</text><text fill="#FFFFFF" font-family="KoPubDotum_Pro Medium,KoPubDotum_Pro Medium_MSFontService,sans-serif" font-weight="400" font-size="64" transform="matrix(1 0 0 1 1070.21 1555)">프로세스</text><text fill="#FFFFFF" font-family="KoPubDotum_Pro Medium,KoPubDotum_Pro Medium_MSFontService,sans-serif" font-weight="400" font-size="64" transform="matrix(1 0 0 1 1032.97 1632)">자산화</text><path d="M2085.17 1424.1 2085.17 1647.6 1490.17 1647.6 1490.17 1424.1 2085.17 1424.1ZM1564.54 1722.1C1523.47 1722.1 1490.17 1688.75 1490.17 1647.6L1564.54 1647.6 1564.54 1722.1ZM2085.17 1647.6 2010.79 1647.6 2010.79 1722.1C2051.87 1722.1 2085.17 1688.75 2085.17 1647.6ZM1564.54 1722.1 1564.54 1647.6 2010.79 1647.6 2010.79 1722.1 1564.54 1722.1Z" fill="#AE634E" fill-rule="evenodd"/><text fill="#FFFFFF" font-family="KoPubDotum_Pro Medium,KoPubDotum_Pro Medium_MSFontService,sans-serif" font-weight="400" font-size="64" transform="matrix(1 0 0 1 1597.29 1556)">자연어</text><text fill="#FFFFFF" font-family="Wingdings,Wingdings_MSFontService,sans-serif" font-weight="400" font-size="64" transform="matrix(1 0 0 1 1784.06 1556)"></text><text fill="#FFFFFF" font-family="KoPubDotum_Pro Medium,KoPubDotum_Pro Medium_MSFontService,sans-serif" font-weight="400" font-size="64" transform="matrix(1 0 0 1 1865.42 1556)">코드</text><text fill="#FFFFFF" font-family="KoPubDotum_Pro Medium,KoPubDotum_Pro Medium_MSFontService,sans-serif" font-weight="400" font-size="64" transform="matrix(1 0 0 1 1600.73 1632)">기술</text><text fill="#FFFFFF" font-family="KoPubDotum_Pro Medium,KoPubDotum_Pro Medium_MSFontService,sans-serif" font-weight="400" font-size="64" transform="matrix(1 0 0 1 1731.35 1632)">장벽</text><text fill="#FFFFFF" font-family="KoPubDotum_Pro Medium,KoPubDotum_Pro Medium_MSFontService,sans-serif" font-weight="400" font-size="64" transform="matrix(1 0 0 1 1861.98 1632)">제거</text><path d="M2756.25 1424.1 2756.25 1647.6 2160.25 1647.6 2160.25 1424.1 2756.25 1424.1ZM2234.75 1722.1C2193.6 1722.1 2160.25 1688.75 2160.25 1647.6L2234.75 1647.6 2234.75 1722.1ZM2756.25 1647.6 2681.75 1647.6 2681.75 1722.1C2722.89 1722.1 2756.25 1688.75 2756.25 1647.6ZM2234.75 1722.1 2234.75 1647.6 2681.75 1647.6 2681.75 1722.1 2234.75 1722.1Z" fill="#775159" fill-rule="evenodd"/><text fill="#FFFFFF" font-family="KoPubDotum_Pro Medium,KoPubDotum_Pro Medium_MSFontService,sans-serif" font-weight="400" font-size="64" transform="matrix(1 0 0 1 2336.35 1555)">즉시</text><text fill="#FFFFFF" font-family="KoPubDotum_Pro Medium,KoPubDotum_Pro Medium_MSFontService,sans-serif" font-weight="400" font-size="64" transform="matrix(1 0 0 1 2466.98 1555)">실행</text><text fill="#FFFFFF" font-family="KoPubDotum_Pro Medium,KoPubDotum_Pro Medium_MSFontService,sans-serif" font-weight="400" font-size="64" transform="matrix(1 0 0 1 2369.86 1632)">&amp; </text><text fill="#FFFFFF" font-family="KoPubDotum_Pro Medium,KoPubDotum_Pro Medium_MSFontService,sans-serif" font-weight="400" font-size="64" transform="matrix(1 0 0 1 2433.45 1632)">검증</text><path d="M3426.33 1424.1 3426.33 1647.6 2830.33 1647.6 2830.33 1424.1 3426.33 1424.1ZM2904.83 1722.1C2863.68 1722.1 2830.33 1688.75 2830.33 1647.6L2904.83 1647.6 2904.83 1722.1ZM3426.33 1647.6 3351.83 1647.6 3351.83 1722.1C3392.97 1722.1 3426.33 1688.75 3426.33 1647.6ZM2904.83 1722.1 2904.83 1647.6 3351.83 1647.6 3351.83 1722.1 2904.83 1722.1Z" fill="#343E62" fill-rule="evenodd"/><text fill="#FFFFFF" font-family="KoPubDotum_Pro Medium,KoPubDotum_Pro Medium_MSFontService,sans-serif" font-weight="400" font-size="64" transform="matrix(1 0 0 1 2950.52 1555)">업무</text><text fill="#FFFFFF" font-family="KoPubDotum_Pro Medium,KoPubDotum_Pro Medium_MSFontService,sans-serif" font-weight="400" font-size="64" transform="matrix(1 0 0 1 3081.15 1555)">프로세스</text><text fill="#FFFFFF" font-family="KoPubDotum_Pro Medium,KoPubDotum_Pro Medium_MSFontService,sans-serif" font-weight="400" font-size="64" transform="matrix(1 0 0 1 3043.91 1632)">효율화</text><text font-family="KoPubDotum_Pro Bold,KoPubDotum_Pro Bold_MSFontService,sans-serif" font-weight="700" font-size="69" transform="matrix(1 0 0 1 239.295 1280)">데이터</text><text font-family="KoPubDotum_Pro Bold,KoPubDotum_Pro Bold_MSFontService,sans-serif" font-weight="700" font-size="69" transform="matrix(1 0 0 1 439.816 1280)">카탈로그</text><text font-family="KoPubDotum_Pro Bold,KoPubDotum_Pro Bold_MSFontService,sans-serif" font-weight="700" font-size="69" transform="matrix(1 0 0 1 938.158 1280)">코드</text><text font-family="KoPubDotum_Pro Bold,KoPubDotum_Pro Bold_MSFontService,sans-serif" font-weight="700" font-size="69" transform="matrix(1 0 0 1 1078.52 1280)">카탈로그</text><text font-family="KoPubDotum_Pro Bold,KoPubDotum_Pro Bold_MSFontService,sans-serif" font-weight="700" font-size="69" transform="matrix(1 0 0 1 1607.1 1280)">AI </text><text font-family="KoPubDotum_Pro Bold,KoPubDotum_Pro Bold_MSFontService,sans-serif" font-weight="700" font-size="69" transform="matrix(1 0 0 1 1691.9 1280)">어시스턴트</text><text font-family="KoPubDotum_Pro Bold,KoPubDotum_Pro Bold_MSFontService,sans-serif" font-weight="700" font-size="69" transform="matrix(1 0 0 1 2297.41 1280)">클라우드</text><text font-family="KoPubDotum_Pro Bold,KoPubDotum_Pro Bold_MSFontService,sans-serif" font-weight="700" font-size="69" transform="matrix(1 0 0 1 2558.09 1280)">IDE</text><text font-family="KoPubDotum_Pro Bold,KoPubDotum_Pro Bold_MSFontService,sans-serif" font-weight="700" font-size="69" transform="matrix(1 0 0 1 2920.54 1280)">워크플로우</text><text font-family="KoPubDotum_Pro Bold,KoPubDotum_Pro Bold_MSFontService,sans-serif" font-weight="700" font-size="69" transform="matrix(1 0 0 1 3241.38 1280)">자동</text><text font-family="KoPubDotum_Pro Bold,KoPubDotum_Pro Bold_MSFontService,sans-serif" font-weight="700" font-size="69" transform="matrix(1 0 0 1 3099.54 1360)">화</text><path d="M149.014 1014.51C149.014 973.382 182.369 940.044 223.514 940.044M670.514 940.044 223.514 940.044M745.014 1014.51C745.014 973.382 711.659 940.044 670.514 940.044M745.014 1424.04 745.014 1014.51M149.014 1424.04 149.014 1014.51M186.264 1014.51C186.264 993.944 202.941 977.275 223.514 977.275M670.514 977.275 223.514 977.275M707.764 1014.51C707.764 993.944 691.085 977.275 670.514 977.275M707.764 1349.58 707.764 1014.51M670.514 1386.81C691.085 1386.81 707.764 1370.14 707.764 1349.58M223.514 1386.81 409.764 1386.81 438.235 1415.27C443.084 1420.12 450.943 1420.12 455.792 1415.27L484.264 1386.81 670.514 1386.81M223.514 1386.81C202.941 1386.81 186.264 1370.14 186.264 1349.58M186.264 1349.58 186.264 1014.51" stroke="#FFFFFF" stroke-width="6.20663" stroke-linecap="round" stroke-linejoin="round" stroke-miterlimit="10" fill="none" fill-rule="evenodd"/><path d="M819.092 1014.51C819.092 973.382 852.447 940.044 893.592 940.044M1340.59 940.044 893.592 940.044M1415.09 1014.51C1415.09 973.382 1381.74 940.044 1340.59 940.044M1415.09 1424.04 1415.09 1014.51M819.092 1424.04 819.092 1014.51M856.342 1014.51C856.342 993.944 873.019 977.275 893.592 977.275M1340.59 977.275 893.592 977.275M1377.84 1014.51C1377.84 993.944 1361.16 977.275 1340.59 977.275M1377.84 1349.58 1377.84 1014.51M1340.59 1386.81C1361.16 1386.81 1377.84 1370.14 1377.84 1349.58M893.592 1386.81 1079.84 1386.81 1108.31 1415.27C1113.16 1420.12 1121.02 1420.12 1125.87 1415.27L1154.34 1386.81 1340.59 1386.81M893.592 1386.81C873.019 1386.81 856.342 1370.14 856.342 1349.58M856.342 1349.58 856.342 1014.51" stroke="#FFFFFF" stroke-width="6.20663" stroke-linecap="round" stroke-linejoin="round" stroke-miterlimit="10" fill="none" fill-rule="evenodd"/><path d="M1490.17 1014.51C1490.17 973.382 1523.47 940.044 1564.54 940.044M2010.79 940.044 1564.54 940.044M2085.17 1014.51C2085.17 973.382 2051.87 940.044 2010.79 940.044M2085.17 1424.04 2085.17 1014.51M1490.17 1424.04 1490.17 1014.51M1527.36 1014.51C1527.36 993.944 1544.01 977.275 1564.54 977.275M2010.79 977.275 1564.54 977.275M2047.98 1014.51C2047.98 993.944 2031.33 977.275 2010.79 977.275M2047.98 1349.58 2047.98 1014.51M2010.79 1386.81C2031.33 1386.81 2047.98 1370.14 2047.98 1349.58M1564.54 1386.81 1750.48 1386.81 1778.91 1415.27C1783.75 1420.12 1791.59 1420.12 1796.43 1415.27L1824.86 1386.81 2010.79 1386.81M1564.54 1386.81C1544.01 1386.81 1527.36 1370.14 1527.36 1349.58M1527.36 1349.58 1527.36 1014.51" stroke="#FFFFFF" stroke-width="6.20663" stroke-linecap="round" stroke-linejoin="round" stroke-miterlimit="10" fill="none" fill-rule="evenodd"/><path d="M2160.25 1014.51C2160.25 973.382 2193.6 940.044 2234.75 940.044M2681.75 940.044 2234.75 940.044M2756.25 1014.51C2756.25 973.382 2722.89 940.044 2681.75 940.044M2756.25 1424.04 2756.25 1014.51M2160.25 1424.04 2160.25 1014.51M2197.5 1014.51C2197.5 993.944 2214.18 977.275 2234.75 977.275M2681.75 977.275 2234.75 977.275M2719 1014.51C2719 993.944 2702.32 977.275 2681.75 977.275M2719 1349.58 2719 1014.51M2681.75 1386.81C2702.32 1386.81 2719 1370.14 2719 1349.58M2234.75 1386.81 2421 1386.81 2449.47 1415.27C2454.32 1420.12 2462.18 1420.12 2467.03 1415.27L2495.5 1386.81 2681.75 1386.81M2234.75 1386.81C2214.18 1386.81 2197.5 1370.14 2197.5 1349.58M2197.5 1349.58 2197.5 1014.51" stroke="#FFFFFF" stroke-width="6.20663" stroke-linecap="round" stroke-linejoin="round" stroke-miterlimit="10" fill="none" fill-rule="evenodd"/><path d="M2830.33 1014.51C2830.33 973.382 2863.68 940.044 2904.83 940.044M3351.83 940.044 2904.83 940.044M3426.33 1014.51C3426.33 973.382 3392.97 940.044 3351.83 940.044M3426.33 1424.04 3426.33 1014.51M2830.33 1424.04 2830.33 1014.51M2867.58 1014.51C2867.58 993.944 2884.25 977.275 2904.83 977.275M3351.83 977.275 2904.83 977.275M3389.08 1014.51C3389.08 993.944 3372.4 977.275 3351.83 977.275M3389.08 1349.58 3389.08 1014.51M3351.83 1386.81C3372.4 1386.81 3389.08 1370.14 3389.08 1349.58M2904.83 1386.81 3091.08 1386.81 3119.55 1415.27C3124.4 1420.12 3132.26 1420.12 3137.1 1415.27L3165.58 1386.81 3351.83 1386.81M2904.83 1386.81C2884.25 1386.81 2867.58 1370.14 2867.58 1349.58M2867.58 1349.58 2867.58 1014.51" stroke="#FFFFFF" stroke-width="6.20663" stroke-linecap="round" stroke-linejoin="round" stroke-miterlimit="10" fill="none" fill-rule="evenodd"/><path d="M745.014 1647.6 745.014 1424.1M670.514 1722.1C711.659 1722.1 745.014 1688.75 745.014 1647.6M223.514 1722.1 409.764 1722.1 484.264 1722.1 670.514 1722.1M223.514 1722.1C182.369 1722.1 149.014 1688.75 149.014 1647.6M149.014 1647.6 149.014 1424.1" stroke="#FFFFFF" stroke-width="6.20663" stroke-linecap="round" stroke-linejoin="round" stroke-miterlimit="10" fill="none" fill-rule="evenodd"/><path d="M1415.09 1647.6 1415.09 1424.1M1340.59 1722.1C1381.74 1722.1 1415.09 1688.75 1415.09 1647.6M893.592 1722.1 1079.84 1722.1 1154.34 1722.1 1340.59 1722.1M893.592 1722.1C852.447 1722.1 819.092 1688.75 819.092 1647.6M819.092 1647.6 819.092 1424.1" stroke="#FFFFFF" stroke-width="6.20663" stroke-linecap="round" stroke-linejoin="round" stroke-miterlimit="10" fill="none" fill-rule="evenodd"/><path d="M2085.17 1647.6 2085.17 1424.1M2010.79 1722.1C2051.87 1722.1 2085.17 1688.75 2085.17 1647.6M1564.54 1722.1 1750.48 1722.1 1824.86 1722.1 2010.79 1722.1M1564.54 1722.1C1523.47 1722.1 1490.17 1688.75 1490.17 1647.6M1490.17 1647.6 1490.17 1424.1" stroke="#FFFFFF" stroke-width="6.20663" stroke-linecap="round" stroke-linejoin="round" stroke-miterlimit="10" fill="none" fill-rule="evenodd"/><path d="M2756.25 1647.6 2756.25 1424.1M2681.75 1722.1C2722.89 1722.1 2756.25 1688.75 2756.25 1647.6M2234.75 1722.1 2421 1722.1 2495.5 1722.1 2681.75 1722.1M2234.75 1722.1C2193.6 1722.1 2160.25 1688.75 2160.25 1647.6M2160.25 1647.6 2160.25 1424.1" stroke="#FFFFFF" stroke-width="6.20663" stroke-linecap="round" stroke-linejoin="round" stroke-miterlimit="10" fill="none" fill-rule="evenodd"/><path d="M3426.33 1647.6 3426.33 1424.1M3351.83 1722.1C3392.97 1722.1 3426.33 1688.75 3426.33 1647.6M2904.83 1722.1 3091.08 1722.1 3165.58 1722.1 3351.83 1722.1M2904.83 1722.1C2863.68 1722.1 2830.33 1688.75 2830.33 1647.6M2830.33 1647.6 2830.33 1424.1" stroke="#FFFFFF" stroke-width="6.20663" stroke-linecap="round" stroke-linejoin="round" stroke-miterlimit="10" fill="none" fill-rule="evenodd"/><path d="M3086.35 1102.6 3086.35 1130.7 3058.35 1130.7M3170.35 1074.5 3170.35 1046.41 3198.35 1046.41M3172.22 1046.41C3182.8 1057.65 3189.02 1072.01 3189.02 1088.87 3189.02 1122.58 3161.64 1150.05 3128.04 1150.05 3119.95 1150.05 3111.86 1148.18 3104.4 1145.68M3084.49 1130.7C3073.91 1119.46 3067.69 1105.1 3067.69 1088.24 3067.69 1054.53 3095.06 1027.05 3128.66 1027.05 3136.75 1027.05 3144.84 1028.93 3152.31 1031.42M3128.04 1091.99C3126.32 1091.99 3124.93 1090.59 3124.93 1088.87 3124.93 1087.14 3126.32 1085.74 3128.04 1085.74M3128.04 1091.99C3129.76 1091.99 3131.15 1090.59 3131.15 1088.87 3131.15 1087.14 3129.76 1085.74 3128.04 1085.74M3133.64 1062.64 3135.51 1068.89C3136.13 1071.38 3138.62 1072.63 3140.49 1072.01L3146.71 1070.76C3152.31 1069.51 3156.04 1076.38 3152.31 1080.75L3147.95 1085.74C3146.09 1087.62 3146.09 1090.11 3147.95 1091.99L3152.31 1096.98C3156.04 1101.35 3152.31 1108.22 3146.71 1106.97L3140.49 1105.72C3138 1105.1 3136.13 1106.35 3135.51 1108.85L3133.64 1115.09C3131.77 1120.71 3124.31 1120.71 3122.44 1115.09L3120.57 1108.85C3119.95 1106.35 3117.46 1105.1 3115.6 1105.72L3109.37 1106.97C3103.77 1108.22 3100.04 1101.35 3103.77 1096.98L3108.13 1091.99C3110 1090.11 3110 1087.62 3108.13 1085.74L3103.77 1080.75C3100.04 1076.38 3103.77 1069.51 3109.37 1070.76L3115.6 1072.01C3118.09 1072.63 3119.95 1071.38 3120.57 1068.89L3122.44 1062.64C3124.31 1057.02 3132.4 1057.02 3133.64 1062.64Z" stroke="#343E62" stroke-width="6.20663" stroke-linecap="round" stroke-linejoin="round" stroke-miterlimit="10" fill="none" fill-rule="evenodd"/><path d="M2426.54 1053.39 2415.13 1053.39C2401.4 1053.39 2390.27 1064.51 2390.27 1078.22L2390.27 1110.67C2390.27 1124.39 2401.4 1135.51 2415.13 1135.51L2450.82 1135.51M2504.03 1087.66C2515.62 1087.66 2525.27 1077.53 2525.27 1065.95 2525.27 1054.37 2515.62 1044.72 2504.03 1044.72 2499.69 1044.72 2495.34 1046.17 2491.96 1048.58 2489.07 1033.63 2476.03 1022.05 2460.1 1022.05 2442.24 1022.05 2427.27 1036.52 2427.27 1054.86 2427.27 1073.19 2441.76 1087.66 2460.1 1087.66L2504.03 1087.66ZM2479.86 1135.51 2525.27 1135.51M2433.37 1115.96 2452.92 1135.49 2433.37 1155.03M2497.21 1155.05 2477.65 1135.52 2497.21 1115.97" stroke="#775159" stroke-width="6.20663" stroke-linecap="round" stroke-linejoin="round" stroke-miterlimit="10" fill="none" fill-rule="evenodd"/><path d="M1776.82 1083.37 1801.76 1083.37 1801.14 1104.1 1825.39 1083.37 1850.88 1083.37C1853.08 1083.38 1855.2 1082.51 1856.76 1080.96 1858.32 1079.4 1859.2 1077.28 1859.2 1075.08L1859.2 1025.34C1859.2 1020.76 1855.49 1017.05 1850.91 1017.05L1776.3 1017.05C1771.72 1017.05 1768.01 1020.76 1768.01 1025.34L1768.01 1057.47M1800.13 1066.79 1815.67 1032.6 1831.22 1066.79M1803.58 1059.21 1827.77 1059.21M1784.59 1153.84C1784.59 1157.27 1781.8 1160.05 1778.37 1160.05L1722.41 1160.05C1718.98 1160.05 1716.2 1157.27 1716.2 1153.84L1716.2 1132.07C1716.2 1113.19 1731.51 1097.88 1750.39 1097.88 1769.28 1097.88 1784.59 1113.19 1784.59 1132.07ZM1716.2 1141.4 1784.59 1141.4M1734.85 1124.3C1734.85 1125.16 1735.54 1125.86 1736.4 1125.86 1737.26 1125.86 1737.96 1125.16 1737.96 1124.3 1737.96 1123.44 1737.26 1122.75 1736.4 1122.75 1735.54 1122.75 1734.85 1123.44 1734.85 1124.3M1762.83 1124.3C1762.83 1125.16 1763.52 1125.86 1764.38 1125.86 1765.24 1125.86 1765.93 1125.16 1765.93 1124.3 1765.93 1123.44 1765.24 1122.75 1764.38 1122.75 1763.52 1122.75 1762.83 1123.44 1762.83 1124.3M1750.39 1097.88 1750.39 1085.44M1741.07 1076.12C1741.07 1081.27 1745.24 1085.44 1750.39 1085.44 1755.54 1085.44 1759.72 1081.27 1759.72 1076.12 1759.72 1070.97 1755.54 1066.79 1750.39 1066.79 1745.24 1066.79 1741.07 1070.97 1741.07 1076.12" stroke="#AE634E" stroke-width="6.20663" stroke-linecap="round" stroke-linejoin="round" stroke-miterlimit="10" fill="none" fill-rule="evenodd"/><path d="M1086.63 1050.25 1071.07 1066.31 1086.63 1082.99M1135.78 1050.25 1151.34 1066.31 1135.78 1082.99M1102.81 1087.93 1119.61 1044.69M1156.01 1116.04C1156.01 1116.04 1152.9 1107.39 1129.25 1106.16 1126.76 1106.16 1124.9 1107.39 1124.9 1109.25L1124.9 1145.08C1124.9 1146.93 1126.76 1148.17 1128.63 1148.17 1152.9 1148.79 1156.01 1158.05 1156.01 1158.05L1156.01 1116.04ZM1156.01 1116.04C1156.01 1116.04 1159.12 1107.39 1182.76 1106.16 1185.25 1106.16 1187.12 1107.39 1187.12 1109.25L1187.12 1145.08C1187.12 1146.93 1185.25 1148.17 1183.38 1148.17 1159.12 1148.79 1156.01 1158.05 1156.01 1158.05M1175.3 1089.48 1175.3 1027.7C1175.3 1022.76 1171.56 1019.05 1166.58 1019.05L1055.83 1019.05C1050.85 1019.05 1047.12 1022.76 1047.12 1027.7L1047.12 1112.34C1047.12 1117.28 1050.85 1120.99 1055.83 1120.99L1104.36 1120.99M1096.27 1120.99 1091.92 1145.7M1102.81 1145.7 1085.7 1145.7" stroke="#F58220" stroke-width="6.20663" stroke-linecap="round" stroke-linejoin="round" stroke-miterlimit="10" fill="none" fill-rule="evenodd"/><path d="M498.373 1056.12 498.373 1031.41C498.373 1024.61 492.773 1019.05 485.929 1019.05L389.484 1019.05C382.64 1019.05 377.04 1024.61 377.04 1031.41L377.04 1056.12M498.373 1056.12 377.04 1056.12M498.373 1056.12 457.929 1056.12M498.373 1056.12 498.373 1078.98M377.04 1056.12 377.04 1116.66C377.04 1123.46 382.64 1129.02 389.484 1129.02L417.484 1129.02M377.04 1056.12 417.484 1056.12M417.484 1056.12 417.484 1129.02M417.484 1056.12 457.929 1056.12M417.484 1129.02 434.907 1129.02M377.04 1093.19 442.373 1093.19M457.929 1056.12 457.929 1078.98M517.04 1158.05 501.372 1142.5M509.573 1122.84C509.573 1138.19 497.037 1150.64 481.573 1150.64 466.109 1150.64 453.573 1138.19 453.573 1122.84 453.573 1107.49 466.109 1095.04 481.573 1095.04 497.037 1095.04 509.573 1107.49 509.573 1122.84Z" stroke="#C88F42" stroke-width="6.20663" stroke-linecap="round" stroke-linejoin="round" stroke-miterlimit="10" fill="none" fill-rule="evenodd"/></g></svg>